<?xml version="1.0" encoding="UTF-8"?>
<svg width="130px" height="44px" viewBox="0 0 130 44" version="1.1" xmlns="http://www.w3.org/2000/svg" xmlns:xlink="http://www.w3.org/1999/xlink">
    <!-- Generator: Sketch 47.1 (45422) - http://www.bohemiancoding.com/sketch -->
    <title>logo@3x</title>
    <desc>Created with Sketch.</desc>
    <defs></defs>
    <g id="Page-1" stroke="none" stroke-width="1" fill="none" fill-rule="evenodd">
        <g id="logo" fill-rule="nonzero" fill="#FFFFFF">
            <g>
                <g id="Well" transform="translate(56.000000, 17.000000)">
                    <path d="M5.959212,23.9780816 L0.0461632108,7.74211801 C-0.0153877369,7.3219565 -0.0153877369,6.89478794 0.0461632108,6.47462643 C0.0453080183,5.8448331 0.298204504,5.24239072 0.745528107,4.80862049 C1.19285171,4.37485026 1.79523936,4.14792257 2.41138273,4.18107023 C3.52306379,4.20883132 4.47370382,5.00501962 4.71747175,6.11248597 L8.8566059,18.9081153 L12.9366096,5.93141575 C13.2284694,4.80518431 14.2197609,4.01544854 15.3609596,4 L15.656612,4 C16.7978107,4.01544854 17.7891021,4.80518431 18.080962,5.93141575 L22.2792266,18.9081153 L26.3592303,5.93141575 C26.6081326,4.80224231 27.5905617,4 28.7244498,4 C29.9654108,4 30.9714084,5.02686009 30.9714084,6.2935562 C31.0095305,6.65465134 31.0095305,7.01888242 30.9714084,7.37997756 L25.0583596,23.7970114 C24.7614767,25.0564797 23.6664424,25.9506743 22.3974876,25.9698541 L22.3974876,25.9698541 C21.1484996,26.008401 20.0414926,25.1546503 19.7366157,23.9177249 L15.656612,11.1824523 L11.5174779,23.9177249 C11.2419261,25.1229434 10.1873191,25.9741117 8.97486688,25.9698541 L8.97486688,25.9698541 C7.62204759,26.1741497 6.33096674,25.3214197 5.959212,23.9780816 Z" id="Shape"></path>
                    <path d="M43.6748898,25.9935636 C40.8067566,26.0960206 38.0266025,24.9714839 36.0028568,22.8903246 C33.979111,20.8091654 32.894839,17.9596426 33.010731,15.0268637 L33.010731,15.0268637 C32.8836474,12.1784172 33.8896278,9.39870938 35.7993794,7.32131835 C37.7091309,5.24392731 40.3599158,4.04587614 43.1475412,4.00023639 C45.8255574,3.98142522 48.3940852,5.08601115 50.2542644,7.05645657 C52.1144436,9.026902 53.1036981,11.6909937 52.9913801,14.4275905 C53.0071912,15.0418667 52.7796042,15.6366069 52.360313,16.0767222 C51.9410217,16.5168374 51.3656177,16.7649688 50.7647975,16.764756 L37.7568676,16.764756 C38.0588741,19.8384361 40.5958889,22.1736957 43.6162955,22.158215 C45.4230447,22.1706155 47.1724931,21.5102974 48.5382149,20.300468 C48.8746265,19.993716 49.3196084,19.8420142 49.7686948,19.8809768 C50.2763008,19.8807232 50.7623181,20.0909688 51.1156859,20.4636699 C51.4690538,20.836371 51.6595744,21.3396777 51.6437117,21.8585784 C51.6270584,22.4072189 51.3946713,22.9257805 50.9991746,23.2968341 C48.9832808,25.1180443 46.3632192,26.0827252 43.6748898,25.9935636 L43.6748898,25.9935636 Z M48.3624321,13.4687533 C48.3938525,12.0064332 47.8558283,10.5912745 46.8667864,9.53477393 C45.8777444,8.47827341 44.5187534,7.8670292 43.088947,7.83558501 C40.1675791,8.0704894 37.8650814,10.4765628 37.6982733,13.4687533 L48.3624321,13.4687533 Z" id="Shape"></path>
                    <path d="M58.0000001,2.35361087 C57.9997946,1.71926321 58.2651158,1.11171048 58.7357955,0.668730359 C59.2064752,0.225750234 59.8426314,-0.0151223911 60.5000001,0.000736332202 C61.8572458,0.000346833107 62.9668965,1.04469444 63,2.35361087 L63,23.5883036 C63,24.9202467 61.8807119,26 60.5000001,26 C59.1192882,26 58.0000001,24.9202467 58.0000001,23.5883036 L58.0000001,2.35361087 Z" id="Shape"></path>
                    <path d="M69,2.40632054 C69,1.0773464 70.1192881,0 71.5,0 C72.8807119,0 74,1.0773464 74,2.40632054 L74,23.5936795 C74,24.9226536 72.8807119,26 71.5,26 C70.1192881,26 69,24.9226536 69,23.5936795 L69,2.40632054 Z" id="Shape"></path>
                </g>
                <g id="Bird">
                    <path d="M47.0542036,24.6866654 C46.474029,22.1247957 44.1769057,20.3293044 41.5632755,20.3948132 C38.8320168,20.8341352 36.3885247,22.3516295 34.7758782,24.6100252 C34.5080369,24.8135748 34.1931424,24.94543 33.8607235,24.9932262 C33.8607235,24.9932262 33.2506204,24.9932262 32.9455688,23.9202632 C30.73993,19.7167627 27.8239527,15.9305761 24.3278621,12.7307916 C21.9327044,9.03176446 20.8324852,4.6360808 21.2010836,0.23843623 C21.2010836,0.23843623 21.2010836,-0.298045287 21.2010836,0.23843623 C15.4021702,3.08927475 11.7947744,9.08141371 11.9732738,15.5664796 C11.9910884,18.5008191 12.8953058,21.3605237 14.5662121,23.7669828 L14.5662121,23.7669828 C15.4051039,24.8399458 14.5662121,25.8362686 13.269743,24.9932262 L13.269743,24.9932262 C11.2755912,22.7884755 8.5785186,21.3519545 5.64345391,20.9312948 C3.41507501,20.7172781 1.24902113,21.7468319 0,23.6137023 C0,23.6137023 0,23.6137023 0,23.6137023 L1.98283516,23.6137023 C12.7359028,23.6137023 7.32123751,44 24.8617024,44 C37.0637649,44 37.5213422,24.916586 45.6052087,24.916586 C46.0350991,24.8536901 46.4717874,24.8536901 46.9016778,24.916586 C46.9016778,24.916586 47.1304665,24.9932262 47.0542036,24.6866654 Z M41.181961,23.7669828 C40.78097,23.7669828 40.4194632,23.5242365 40.2660106,23.1519362 C40.112558,22.7796359 40.1973795,22.3510997 40.4809229,22.0661533 C40.7644663,21.781207 41.1908927,21.6959659 41.5613601,21.8501777 C41.9318274,22.0043895 42.1733786,22.367685 42.1733786,22.77066 C42.1733786,23.3209139 41.7295058,23.7669828 41.181961,23.7669828 L41.181961,23.7669828 Z" id="Shape"></path>
                    <path d="M28.0179189,13.3023256 C28.0179189,13.3023256 28.0179189,13.3023256 28.0179189,13.3023256 C27.585216,9.87471853 28.1560198,6.40542725 29.6744186,3.23427802 C29.6744186,3.23427802 29.6744186,2.86412922 29.6744186,3.23427802 C27.2718844,3.86575789 25.1551134,5.16164151 23.6281946,6.9357661 C23.5037801,7.09060486 23.5037801,7.29913567 23.6281946,7.45397443 C24.3844918,9.76021162 25.9172269,11.8022472 28.0179189,13.3023256 L28.0179189,13.3023256 Z" id="Shape"></path>
                </g>
            </g>
        </g>
    </g>
</svg>